<svg width="160" height="74" viewBox="0 0 160 74" fill="none" xmlns="http://www.w3.org/2000/svg">
<path d="M17.8863 39.016L23.7103 27.464C23.9983 26.76 24.6383 26.408 25.3743 26.408C26.0783 26.408 26.8143 26.76 27.1663 27.4L32.9903 39.016L38.9743 25.896C39.3263 25.128 39.9983 24.616 40.8303 24.616C41.9503 24.616 43.2623 25.64 42.5583 27.176L34.7823 43.944C34.4623 44.648 33.7583 45 33.0223 45C32.2863 45 31.7103 44.744 31.3583 44.008L25.4063 32.264L19.5183 44.008C19.2303 44.616 18.4623 45 17.6943 45C16.9583 45 16.3183 44.68 16.0303 43.944L8.38225 27.304C7.71025 25.832 8.83025 24.616 10.0143 24.616C10.8463 24.616 11.5183 25.064 11.9663 26.056L17.8863 39.016ZM62.5558 41.8C63.6758 41.8 64.3158 42.664 64.3158 43.464C64.3158 44.232 63.7398 45 62.5558 45H49.8518C48.5718 45 47.7398 44.136 47.7398 43.08V26.504C47.7398 25.48 48.5718 24.616 49.8518 24.616H62.5558C63.7078 24.616 64.2518 25.352 64.2518 26.152C64.2518 26.92 63.6438 27.752 62.5558 27.752H51.3878V33.352H61.9798C63.0678 33.352 63.6438 34.152 63.6438 34.952C63.6438 35.72 63.0998 36.488 61.9798 36.488H51.3878V41.8H62.5558ZM70.7053 45C69.3293 45 68.7853 44.392 68.7853 43.272V26.248C68.7853 25.16 69.7133 24.616 70.6733 24.616C71.5693 24.616 72.5293 25.16 72.5293 26.248V41.8H83.0253C84.2733 41.8 84.9453 42.632 84.9453 43.4C84.9453 44.232 84.2733 45 83.0253 45H70.7053ZM89.7827 45C88.4067 45 87.8627 44.392 87.8627 43.272V26.248C87.8627 25.16 88.7907 24.616 89.7507 24.616C90.6467 24.616 91.6068 25.16 91.6068 26.248V41.8H102.103C103.351 41.8 104.023 42.632 104.023 43.4C104.023 44.232 103.351 45 102.103 45H89.7827ZM105.476 25.512L111.364 33.544L117.252 25.608C117.7 25 118.276 24.616 118.98 24.616C120.196 24.616 121.284 26.056 120.26 27.432L113.252 36.808V43.08C113.252 44.264 112.228 45 111.396 45C110.372 45 109.54 44.264 109.54 43.08V36.808L102.372 27.336C101.38 26.024 102.468 24.616 103.78 24.616C104.484 24.616 105.06 24.936 105.476 25.512ZM122.73 40.168C122.41 38.92 123.562 38.152 124.682 38.152C125.514 38.152 126.282 38.568 126.442 39.4C127.146 41.48 130.09 41.96 132.234 41.96C134.474 41.96 137.994 41.384 137.994 38.856C137.994 36.84 135.082 36.584 132.234 36.36C127.882 36.008 122.922 35.4 122.922 30.536C122.922 26.152 127.914 24.296 131.914 24.296C135.242 24.296 139.498 25.256 141.002 28.776C141.354 29.96 140.266 30.856 139.178 30.856C138.474 30.856 137.802 30.536 137.546 29.96C136.778 27.976 133.898 27.72 131.946 27.72C130.218 27.72 126.762 28.328 126.762 30.568C126.762 32.648 129.45 32.904 132.586 33.128C137.034 33.544 141.834 33.736 141.834 38.824C141.834 43.912 136.234 45.32 132.234 45.32C128.906 45.32 123.818 44.168 122.73 40.168Z" fill="white"/>
<path d="M43.9656 65.848V68.728C43.9656 68.904 43.8376 69 43.6936 69C43.5656 69 43.4376 68.904 43.4376 68.744V59.096C43.4376 58.936 43.5656 58.824 43.7096 58.824H47.3416C50.0456 58.824 51.4216 60.648 51.4216 62.456C51.4216 64.312 50.0936 65.848 47.3576 65.848H43.9656ZM43.9656 65.352H47.3576C49.8536 65.352 50.9096 63.896 50.8776 62.456C50.8616 60.888 49.5496 59.32 47.3576 59.32H43.9656V65.352ZM54.1443 63.88H61.0883V59.128C61.0883 58.92 61.2323 58.824 61.3603 58.824C61.5043 58.824 61.6323 58.92 61.6323 59.128V68.728C61.6323 68.904 61.5043 69 61.3603 69C61.2323 69 61.0883 68.904 61.0883 68.728V64.36L54.1443 64.344V68.728C54.1443 68.904 54.0163 69 53.8883 69C53.7443 69 53.6163 68.904 53.6163 68.728V59.128C53.6163 58.92 53.7443 58.824 53.8883 58.824C54.0163 58.824 54.1443 58.92 54.1443 59.128V63.88ZM68.9701 58.536C69.0661 58.536 69.1461 58.584 69.1941 58.68L74.2981 68.712C74.4101 68.936 74.2341 69.112 74.0581 69.112C73.9621 69.112 73.8821 69.064 73.8341 68.968L72.4101 66.136H65.5301L64.1061 68.968C64.0581 69.064 63.9781 69.112 63.8821 69.112C63.7061 69.112 63.5301 68.936 63.6421 68.712L68.7301 58.68C68.7781 58.584 68.8741 58.536 68.9701 58.536ZM68.9701 59.32L65.7701 65.656H72.1541L68.9701 59.32ZM76.8944 65.256V68.728C76.8944 68.904 76.7664 69 76.6224 69C76.4944 69 76.3664 68.904 76.3664 68.744V59.096C76.3664 58.936 76.4784 58.824 76.6384 58.824H80.6704C83.3744 58.824 84.7504 60.344 84.7504 62.152C84.7504 63.88 83.5984 65.096 81.2624 65.272L84.4624 68.536C84.6544 68.744 84.5104 69 84.3184 69C84.2544 69 84.1904 68.968 84.1264 68.904L80.6384 65.256H76.8944ZM76.8944 64.792H80.6864C83.1664 64.792 84.2384 63.608 84.2064 62.152C84.1904 60.584 82.8784 59.32 80.6864 59.32H76.8944V64.792ZM96.578 58.984C96.658 58.872 96.754 58.824 96.85 58.824C96.978 58.824 97.106 58.92 97.106 59.112V68.712C97.106 68.904 96.962 69 96.834 69C96.69 69 96.562 68.904 96.562 68.712V59.976L92.434 66.456C92.306 66.696 92.002 66.696 91.874 66.456L87.746 60.008V68.712C87.746 68.904 87.618 69 87.474 69C87.346 69 87.202 68.904 87.202 68.712V59.112C87.202 58.92 87.33 58.824 87.458 58.824C87.554 58.824 87.65 58.872 87.714 58.984L92.162 65.912L96.578 58.984ZM104.43 58.536C104.526 58.536 104.606 58.584 104.654 58.68L109.758 68.712C109.87 68.936 109.694 69.112 109.518 69.112C109.422 69.112 109.342 69.064 109.294 68.968L107.87 66.136H100.99L99.5661 68.968C99.5181 69.064 99.4381 69.112 99.3421 69.112C99.1661 69.112 98.9901 68.936 99.1021 68.712L104.19 58.68C104.238 58.584 104.334 58.536 104.43 58.536ZM104.43 59.32L101.23 65.656H107.614L104.43 59.32Z" fill="white"/>
<path d="M134 11.5C134 10.1193 135.119 9 136.5 9H151C151.552 9 152 9.44772 152 10V13C152 13.5523 151.552 14 151 14H136.5C135.119 14 134 12.8807 134 11.5V11.5Z" fill="#1BCA98"/>
<path d="M142 2.5C142 1.11929 143.119 0 144.5 0H159C159.552 0 160 0.447715 160 1V4C160 4.55228 159.552 5 159 5H144.5C143.119 5 142 3.88071 142 2.5V2.5Z" fill="#1BCA98"/>
<path d="M149.5 27C148.119 27 147 25.8807 147 24.5V10C147 9.44772 147.448 9 148 9H151C151.552 9 152 9.44772 152 10V24.5C152 25.8807 150.881 27 149.5 27V27Z" fill="#1BCA98"/>
<path d="M157.5 18C156.119 18 155 16.8807 155 15.5V1C155 0.447716 155.448 0 156 0H159C159.552 0 160 0.447715 160 1V15.5C160 16.8807 158.881 18 157.5 18V18Z" fill="#1BCA98"/>
</svg>
